# xmcd CD database file
#
# Track frame offsets:
#	225
#	16418
#	30921
#	47769
#	66944
#	88497
#	102700
#	113580
#	123214
#	136256
#	152049
#	168967
#
# Disc length: 2447 seconds
#
# Revision: 0
# Processed by: cddbd v1.4PL0 Copyright (c) Steve Scherf et al.
# Submitted via: CDex 1.50Beta7
#
DISCID=9a098c0c
DTITLE=Various Artist - Thunder Road
DYEAR=2001
DGENRE=Country
TTITLE0=High Speed Heros - The Charlie Daniels Band
TTITLE1=Ballad of Thunder Road - The Charlie Daniels Band
TTITLE2=The Last Red Dirt Racer - Tralena
TTITLE3=Driven By A Dream - Tralena
TTITLE4=Champagne [NASCAR] - Alanta Rhythm Section
TTITLE5=Large Time - Alanta Rhythm Section
TTITLE6=Bondo Jones - Tim Wilson
TTITLE7=Dale Darryl Waltrip Richard Petty Rusty Awesome Bill Irvan Gordon Earnhardt Smith Johnson, Jr.- Tim Wilson
TTITLE8=Chopped and Cherried Out - The Kentucky Headhunters
TTITLE9=Get to Heaven - The Kentucky Headhunters
TTITLE10=Long Hard Ride - The Marshall Tucker Band
TTITLE11=Drive On - The Marshell Tucker Band
EXTD=YEAR: 2001
EXTT0=
EXTT1=
EXTT2=
EXTT3=
EXTT4=
EXTT5=
EXTT6=
EXTT7=
EXTT8=
EXTT9=
EXTT10=
EXTT11=
PLAYORDER=
